<svg width="52" height="52" viewBox="0 0 52 52" fill="none" xmlns="http://www.w3.org/2000/svg">
<path d="M26.0002 4.33331C14.0293 4.33331 4.3335 14.0291 4.3335 26C4.33104 30.5484 5.76093 34.9821 8.4203 38.6721C11.0797 42.3621 14.8335 45.121 19.1492 46.5573C20.2325 46.7458 20.6377 46.0958 20.6377 45.526C20.6377 45.0125 20.6095 43.3073 20.6095 41.4916C15.1668 42.4948 13.7585 40.1656 13.3252 38.9458C13.0803 38.3218 12.0252 36.4 11.1043 35.8843C10.346 35.4791 9.26267 34.476 11.0762 34.45C12.7835 34.4218 14.0012 36.0208 14.4085 36.6708C16.3585 39.9468 19.4742 39.026 20.7178 38.4583C20.9085 37.05 21.4762 36.1031 22.1002 35.5615C17.2793 35.0198 12.2418 33.15 12.2418 24.8625C12.2418 22.5051 13.0803 20.5573 14.4627 19.0385C14.246 18.4968 13.4877 16.276 14.6793 13.2968C14.6793 13.2968 16.4928 12.7291 20.6377 15.5198C22.4015 15.0303 24.2239 14.7839 26.0543 14.7875C27.896 14.7875 29.7377 15.0301 31.471 15.5176C35.6137 12.701 37.4293 13.299 37.4293 13.299C38.621 16.2781 37.8627 18.499 37.646 19.0406C39.0262 20.5573 39.8668 22.4791 39.8668 24.8625C39.8668 33.1781 34.8033 35.0198 29.9825 35.5615C30.7668 36.2375 31.445 37.5375 31.445 39.5698C31.445 42.4666 31.4168 44.7958 31.4168 45.5281C31.4168 46.0958 31.8242 46.7718 32.9075 46.5551C37.2084 45.103 40.9457 42.3388 43.5933 38.6515C46.2409 34.9641 47.6656 30.5394 47.6668 26C47.6668 14.0291 37.971 4.33331 26.0002 4.33331Z" fill="url(#paint0_linear)"/>
<defs>
<linearGradient id="paint0_linear" x1="17.6376" y1="2.85039" x2="27.6019" y2="50.9612" gradientUnits="userSpaceOnUse">
<stop offset="0.0175425" stop-color="#00D9F7"/>
<stop offset="0.646297" stop-color="#239BED"/>
<stop offset="1" stop-color="#3FAAE6"/>
</linearGradient>
</defs>
</svg>
