<svg width="170" height="156" viewBox="0 0 170 156" fill="none" xmlns="http://www.w3.org/2000/svg">
<g filter="url(#filter0_d)">
<path fill-rule="evenodd" clip-rule="evenodd" d="M57.4349 41.0964C57.478 40.6534 57.5 40.2043 57.5 39.75C57.5 32.1561 51.3439 26 43.75 26C36.1561 26 30 32.1561 30 39.75C30 47.3439 36.1561 53.5 43.75 53.5C44.1443 53.5 44.5348 53.4834 44.9208 53.4509L57.8023 104.266C55.1906 105.913 53.4557 108.824 53.4557 112.14C53.4557 117.277 57.6201 121.441 62.7572 121.441C67.8942 121.441 72.0586 117.277 72.0586 112.14C72.0586 111.362 71.9631 110.606 71.7831 109.883L130.03 75.1201C131.039 75.77 132.24 76.1471 133.529 76.1471C137.103 76.1471 140 73.2501 140 69.6765C140 66.1029 137.103 63.2059 133.529 63.2059C131.27 63.2059 129.28 64.3643 128.123 66.1196L57.4349 41.0964ZM56.4469 45.0367C55.0288 48.4388 52.2831 51.149 48.8569 52.5204L61.6294 102.906C61.9991 102.861 62.3754 102.838 62.7572 102.838C65.6635 102.838 68.2586 104.171 69.9642 106.259L127.466 71.9407C127.243 71.3428 127.105 70.703 127.069 70.0363L56.4469 45.0367Z" fill="url(#paint0_linear)"/>
</g>
<defs>
<filter id="filter0_d" x="0" y="0" width="170" height="155.441" filterUnits="userSpaceOnUse" color-interpolation-filters="sRGB">
<feFlood flood-opacity="0" result="BackgroundImageFix"/>
<feColorMatrix in="SourceAlpha" type="matrix" values="0 0 0 0 0 0 0 0 0 0 0 0 0 0 0 0 0 0 127 0"/>
<feOffset dy="4"/>
<feGaussianBlur stdDeviation="15"/>
<feColorMatrix type="matrix" values="0 0 0 0 0.299608 0 0 0 0 0.28625 0 0 0 0 0.954167 0 0 0 0.25 0"/>
<feBlend mode="normal" in2="BackgroundImageFix" result="effect1_dropShadow"/>
<feBlend mode="normal" in="SourceGraphic" in2="effect1_dropShadow" result="shape"/>
</filter>
<linearGradient id="paint0_linear" x1="63.7719" y1="22.6512" x2="83.9632" y2="132.238" gradientUnits="userSpaceOnUse">
<stop offset="0.0175425" stop-color="#00D9F7"/>
<stop offset="0.646297" stop-color="#239BED"/>
<stop offset="1" stop-color="#3FAAE6"/>
</linearGradient>
</defs>
</svg>
