<svg width="52" height="52" viewBox="0 0 52 52" fill="none" xmlns="http://www.w3.org/2000/svg">
<path d="M26.0002 47.6666C14.0337 47.6666 4.3335 37.9665 4.3335 26C4.3335 14.0335 14.0337 4.33331 26.0002 4.33331C37.9667 4.33331 47.6668 14.0335 47.6668 26C47.6668 37.9665 37.9667 47.6666 26.0002 47.6666ZM19.2618 28.535L19.29 28.5198L21.175 34.7381C21.4177 35.412 21.7513 35.5333 22.1565 35.477C22.5638 35.4228 22.7783 35.204 23.0448 34.9483L25.6188 32.461L31.1438 36.5517C32.1535 37.1085 32.8793 36.8203 33.1307 35.6156L36.7208 18.668C37.1173 17.0906 36.424 16.458 35.1998 16.9606L14.1117 25.1073C12.673 25.6836 12.6817 26.4896 13.8517 26.8471L19.2618 28.5371V28.535Z" fill="url(#paint0_linear)"/>
<defs>
<linearGradient id="paint0_linear" x1="17.6376" y1="2.81285" x2="28.0908" y2="52.038" gradientUnits="userSpaceOnUse">
<stop offset="0.0175425" stop-color="#00D9F7"/>
<stop offset="0.646297" stop-color="#239BED"/>
<stop offset="1" stop-color="#3FAAE6"/>
</linearGradient>
</defs>
</svg>
